<?xml version="1.0" encoding="UTF-8" standalone="no"?>
<!-- Created with Inkscape (http://www.inkscape.org/) -->

<svg
   xmlns:dc="http://purl.org/dc/elements/1.1/"
   xmlns:cc="http://creativecommons.org/ns#"
   xmlns:rdf="http://www.w3.org/1999/02/22-rdf-syntax-ns#"
   xmlns:svg="http://www.w3.org/2000/svg"
   xmlns="http://www.w3.org/2000/svg"
   xmlns:xlink="http://www.w3.org/1999/xlink"
   xmlns:sodipodi="http://sodipodi.sourceforge.net/DTD/sodipodi-0.dtd"
   xmlns:inkscape="http://www.inkscape.org/namespaces/inkscape"
   width="50"
   height="50"
   id="svg2985"
   version="1.1"
   inkscape:version="0.48.4 r9939"
   sodipodi:docname="bunny.svg"
   inkscape:export-filename="C:\Users\Clinton\Pictures\bunny.png"
   inkscape:export-xdpi="90"
   inkscape:export-ydpi="90">
  <defs
     id="defs2987">
    <linearGradient
       inkscape:collect="always"
       id="linearGradient3237">
      <stop
         id="stop3241"
         offset="0"
         style="stop-color:#000000;stop-opacity:0;" />
      <stop
         id="stop3239"
         offset="1"
         style="stop-color:#000000;stop-opacity:1;" />
    </linearGradient>
    <linearGradient
       inkscape:collect="always"
       id="linearGradient3210">
      <stop
         style="stop-color:#f9f9f9;stop-opacity:1;"
         offset="0"
         id="stop3212" />
      <stop
         style="stop-color:#f9f9f9;stop-opacity:0;"
         offset="1"
         id="stop3214" />
    </linearGradient>
    <linearGradient
       inkscape:collect="always"
       id="linearGradient3159">
      <stop
         style="stop-color:#ff5555;stop-opacity:1;"
         offset="0"
         id="stop3161" />
      <stop
         style="stop-color:#ff5555;stop-opacity:0;"
         offset="1"
         id="stop3163" />
    </linearGradient>
    <linearGradient
       inkscape:collect="always"
       id="linearGradient3115">
      <stop
         style="stop-color:#ff5555;stop-opacity:1;"
         offset="0"
         id="stop3117" />
      <stop
         style="stop-color:#ff5555;stop-opacity:0;"
         offset="1"
         id="stop3119" />
    </linearGradient>
    <linearGradient
       inkscape:collect="always"
       xlink:href="#linearGradient3115"
       id="linearGradient3121"
       x1="20.304066"
       y1="3.128922"
       x2="25.152798"
       y2="9.0888224"
       gradientUnits="userSpaceOnUse" />
    <linearGradient
       inkscape:collect="always"
       xlink:href="#linearGradient3115-0"
       id="linearGradient3121-4"
       x1="20.304066"
       y1="3.128922"
       x2="25.152798"
       y2="9.0888224"
       gradientUnits="userSpaceOnUse" />
    <linearGradient
       inkscape:collect="always"
       id="linearGradient3115-0">
      <stop
         style="stop-color:#ff5555;stop-opacity:1;"
         offset="0"
         id="stop3117-9" />
      <stop
         style="stop-color:#ff5555;stop-opacity:0;"
         offset="1"
         id="stop3119-4" />
    </linearGradient>
    <linearGradient
       gradientTransform="matrix(0.86602541,0.50000001,-0.50000001,0.86602541,16.379105,-8.0045993)"
       y2="9.0888224"
       x2="25.152798"
       y1="3.128922"
       x1="20.304066"
       gradientUnits="userSpaceOnUse"
       id="linearGradient3138"
       xlink:href="#linearGradient3115-0"
       inkscape:collect="always" />
    <linearGradient
       inkscape:collect="always"
       xlink:href="#linearGradient3159"
       id="linearGradient3165"
       x1="11.700762"
       y1="35.344482"
       x2="17.790386"
       y2="33.400734"
       gradientUnits="userSpaceOnUse" />
    <linearGradient
       inkscape:collect="always"
       xlink:href="#linearGradient3210"
       id="linearGradient3216"
       x1="6.6450348"
       y1="4.4150577"
       x2="18.340298"
       y2="17.040625"
       gradientUnits="userSpaceOnUse" />
    <radialGradient
       inkscape:collect="always"
       xlink:href="#linearGradient3237"
       id="radialGradient3243"
       cx="18.138813"
       cy="26.963367"
       fx="18.138813"
       fy="26.963367"
       r="25.051783"
       gradientUnits="userSpaceOnUse"
       gradientTransform="matrix(-2.0072828,0.05617006,-0.04635579,-1.6572561,61.903298,68.71558)" />
  </defs>
  <sodipodi:namedview
     id="base"
     pagecolor="#ffffff"
     bordercolor="#666666"
     borderopacity="1.0"
     inkscape:pageopacity="0"
     inkscape:pageshadow="2"
     inkscape:zoom="9.8994949"
     inkscape:cx="7.524361"
     inkscape:cy="24.962363"
     inkscape:current-layer="layer10"
     showgrid="true"
     inkscape:grid-bbox="true"
     inkscape:document-units="px"
     inkscape:window-width="1920"
     inkscape:window-height="1058"
     inkscape:window-x="1672"
     inkscape:window-y="13"
     inkscape:window-maximized="1" />
  <metadata
     id="metadata2990">
    <rdf:RDF>
      <cc:Work
         rdf:about="">
        <dc:format>image/svg+xml</dc:format>
        <dc:type
           rdf:resource="http://purl.org/dc/dcmitype/StillImage" />
        <dc:title></dc:title>
      </cc:Work>
    </rdf:RDF>
  </metadata>
  <g
     id="layer1"
     inkscape:label="Layer 1"
     inkscape:groupmode="layer"
     transform="translate(0,2)"
     style="opacity:1" />
  <g
     inkscape:groupmode="layer"
     id="layer2"
     inkscape:label="outline"
     transform="translate(0,2)"
     style="display:inline"
     sodipodi:insensitive="true">
    <path
       sodipodi:type="arc"
       style="fill:#d35f5f;fill-opacity:1;fill-rule:nonzero;stroke:none"
       id="path3037"
       sodipodi:cx="25.051783"
       sodipodi:cy="24.948217"
       sodipodi:rx="25.051783"
       sodipodi:ry="25.051783"
       d="m 50.103565,24.948217 a 25.051783,25.051783 0 1 1 -50.103565,0 25.051783,25.051783 0 1 1 50.103565,0 z"
       transform="translate(0,-2)" />
  </g>
  <g
     inkscape:groupmode="layer"
     id="layer6"
     inkscape:label="BackGroundBunny">
    <path
       inkscape:connector-curvature="0"
       style="fill:#ff8080;fill-opacity:1;fill-rule:nonzero;stroke:none;display:inline"
       d="m 19.168318,2.1368135 c -2.343145,0 -4.48337,2.417242 -4.84375,4.7500003 -1.594479,10.3211682 1.795902,16.0000732 5.03125,18.7500002 -0.05493,0.289773 -0.105844,0.582307 -0.09375,0.875 -1.005924,0.09852 -2.02931,0.31145 -3.0625,0.6875 -1.842042,0.670449 -3.408047,1.695014 -4.5625,2.90625 -0.945866,-0.813712 -2.0656317,-1.17533 -3.0624997,-0.8125 -1.730015,0.629674 -2.418518,3.124752 -1.53125,5.5625 0.710729,1.952711 2.228411,3.247079 3.6874997,3.375 1.999327,2.238477 6.044136,2.951191 10.03125,1.5 4.823072,-1.755454 7.696848,-5.977471 6.4375,-9.4375 -0.0306,-0.08407 -0.05887,-0.168396 -0.09375,-0.25 2.903337,-1.03431 4.721849,-3.562152 4.09375,-5.90625 -0.491465,-1.834172 -2.3332,-2.987048 -4.5625,-3.15625 1.016082,-2.549122 2.605782,-5.793509 5.25,-9.84375 2.714334,-4.1576392 1.742149,-6.2450915 -0.34375,-7.3125005 -2.085899,-1.0674101 -5.08526,0.1187674 -6.46875,2.0312503 -0.923673,1.276849 -1.699329,2.49784 -2.34375,3.6875 0.03257,-0.351897 0.0551,-0.665845 0.09375,-1.03125 0.522343,-4.9376868 -1.313104,-6.3750003 -3.65625,-6.3750003 z"
       id="path3051-7" />
  </g>
  <g
     inkscape:groupmode="layer"
     id="layer5"
     inkscape:label="Layer2"
     style="display:inline">
    <path
       style="fill:#e6e6e6;fill-opacity:1;fill-rule:nonzero;stroke:none"
       d="m 20.59375,2.3125 c -2.343145,0 -4.48337,2.417242 -4.84375,4.75 -1.594479,10.321168 1.795902,16.000073 5.03125,18.75 -0.05493,0.289773 -0.105844,0.582307 -0.09375,0.875 -1.005924,0.09852 -2.02931,0.31145 -3.0625,0.6875 -1.842042,0.670449 -3.408047,1.695014 -4.5625,2.90625 -0.945866,-0.813712 -2.065632,-1.17533 -3.0625,-0.8125 -1.7300146,0.629674 -2.4185177,3.124752 -1.53125,5.5625 0.7107289,1.952711 2.228411,3.247079 3.6875,3.375 1.999327,2.238477 6.044136,2.951191 10.03125,1.5 4.823072,-1.755454 7.696848,-5.977471 6.4375,-9.4375 -0.0306,-0.08407 -0.05887,-0.168396 -0.09375,-0.25 2.903337,-1.03431 4.721849,-3.562152 4.09375,-5.90625 -0.491465,-1.834172 -2.3332,-2.987048 -4.5625,-3.15625 1.016082,-2.549122 2.605782,-5.793509 5.25,-9.84375 C 36.026834,7.1548612 35.054649,5.067409 32.96875,4 30.882851,2.9325899 27.88349,4.1187674 26.5,6.03125 25.576327,7.3080991 24.800671,8.5290904 24.15625,9.71875 24.188816,9.3668531 24.211345,9.0529052 24.25,8.6875 24.772343,3.7498135 22.936896,2.3125 20.59375,2.3125 z"
       id="path3051"
       inkscape:connector-curvature="0" />
    <path
       style="fill:url(#linearGradient3138);fill-opacity:1;fill-rule:nonzero;stroke:none"
       d="m 32.573314,10.615255 c -8.204495,9.966999 -7.264638,14.760143 -8.907344,13.811727 -1.642704,-0.948417 -4.106808,-8.64518 3.864094,-18.0065154 1.356302,-1.5928923 3.225712,-2.5117234 4.868418,-1.5633068 1.642705,0.9484162 2.411945,3.040401 0.174832,5.7580952 z"
       id="path3112-8"
       inkscape:connector-curvature="0"
       sodipodi:nodetypes="sssss" />
    <path
       sodipodi:type="arc"
       style="fill:url(#linearGradient3165);fill-opacity:1;fill-rule:nonzero;stroke:none"
       id="path3157"
       sodipodi:cx="20.253559"
       sodipodi:cy="34.241619"
       sodipodi:rx="5.0002551"
       sodipodi:ry="3.939595"
       d="m 25.253814,34.241619 a 5.0002551,3.939595 0 1 1 -10.00051,0 5.0002551,3.939595 0 1 1 10.00051,0 z"
       transform="matrix(1.3854998,-0.71575495,0.80675788,1.1355953,-35.634472,9.3485055)" />
  </g>
  <g
     inkscape:groupmode="layer"
     id="layer7"
     inkscape:label="eyes">
    <path
       sodipodi:type="arc"
       style="fill:#800000;fill-opacity:1;fill-rule:nonzero;stroke:none"
       id="path3103"
       sodipodi:cx="27.930717"
       sodipodi:cy="26.008877"
       sodipodi:rx="1.1616755"
       sodipodi:ry="1.1616755"
       d="m 29.092393,26.008877 a 1.1616755,1.1616755 0 1 1 -2.323351,0 1.1616755,1.1616755 0 1 1 2.323351,0 z"
       transform="translate(0.30304576,-0.50507627)" />
  </g>
  <g
     inkscape:groupmode="layer"
     id="layer8"
     inkscape:label="gradient">
    <path
       style="fill:url(#linearGradient3121);fill-opacity:1;fill-rule:nonzero;stroke:none"
       d="m 23.334523,8.0281619 c -2.121801,12.7339231 1.088711,16.4149791 -0.808121,16.4149791 -1.896833,0 -7.879191,-5.433542 -5.656855,-17.5261469 0.378145,-2.057636 1.537686,-3.7880721 3.434519,-3.7880721 1.896832,0 3.609006,1.4270922 3.030457,4.8992399 z"
       id="path3112"
       inkscape:connector-curvature="0"
       sodipodi:nodetypes="sssss" />
  </g>
  <g
     inkscape:groupmode="layer"
     id="layer9"
     inkscape:label="Layer">
    <path
       sodipodi:type="arc"
       style="fill:url(#linearGradient3216);fill-opacity:1;fill-rule:nonzero;stroke:none"
       id="path3168"
       sodipodi:cx="25.051783"
       sodipodi:cy="24.948217"
       sodipodi:rx="25.051783"
       sodipodi:ry="25.051783"
       d="m 50.103565,24.948217 a 25.051783,25.051783 0 1 1 -50.103565,0 25.051783,25.051783 0 1 1 50.103565,0 z"
       transform="matrix(0.76008064,0,0,0.76008064,5.1517783,4.1167779)" />
  </g>
  <g
     inkscape:groupmode="layer"
     id="layer10"
     inkscape:label="blackGradient">
    <path
       sodipodi:type="arc"
       style="fill:url(#radialGradient3243);fill-opacity:1;fill-rule:nonzero;stroke:none"
       id="path3219"
       sodipodi:cx="24.950768"
       sodipodi:cy="25.049232"
       sodipodi:rx="25.051783"
       sodipodi:ry="25.051783"
       d="m 50.00255,25.049232 a 25.051783,25.051783 0 1 1 -50.10356509,0 25.051783,25.051783 0 1 1 50.10356509,0 z" />
  </g>
</svg>
