<?xml version="1.0" encoding="UTF-8" standalone="no"?>
<!-- Created with Inkscape (http://www.inkscape.org/) -->

<svg
   xmlns:dc="http://purl.org/dc/elements/1.1/"
   xmlns:cc="http://creativecommons.org/ns#"
   xmlns:rdf="http://www.w3.org/1999/02/22-rdf-syntax-ns#"
   xmlns:svg="http://www.w3.org/2000/svg"
   xmlns="http://www.w3.org/2000/svg"
   xmlns:sodipodi="http://sodipodi.sourceforge.net/DTD/sodipodi-0.dtd"
   xmlns:inkscape="http://www.inkscape.org/namespaces/inkscape"
   width="744.09448819"
   height="1052.3622047"
   id="svg3954"
   version="1.1"
   inkscape:version="0.48.4 r9939"
   sodipodi:docname="New document 10">
  <title
     id="title4787">kid</title>
  <defs
     id="defs3956" />
  <sodipodi:namedview
     id="base"
     pagecolor="#ffffff"
     bordercolor="#666666"
     borderopacity="1.0"
     inkscape:pageopacity="0.0"
     inkscape:pageshadow="2"
     inkscape:zoom="3.959798"
     inkscape:cx="355.94879"
     inkscape:cy="711.66543"
     inkscape:document-units="px"
     inkscape:current-layer="layer1"
     showgrid="false"
     inkscape:window-width="1920"
     inkscape:window-height="1058"
     inkscape:window-x="1672"
     inkscape:window-y="-8"
     inkscape:window-maximized="1" />
  <metadata
     id="metadata3959">
    <rdf:RDF>
      <cc:Work
         rdf:about="">
        <dc:format>image/svg+xml</dc:format>
        <dc:type
           rdf:resource="http://purl.org/dc/dcmitype/StillImage" />
        <dc:title>kid</dc:title>
      </cc:Work>
    </rdf:RDF>
  </metadata>
  <g
     inkscape:groupmode="layer"
     id="layer3"
     inkscape:label="Background"
     style="display:inline"
     sodipodi:insensitive="true">
    <rect
       style="fill:#4d4d4d;fill-opacity:1;fill-rule:nonzero;stroke:#6f797d;stroke-opacity:1"
       id="rect3967"
       width="753.57379"
       height="1056.6195"
       x="-2.0203052"
       y="-0.21676908" />
  </g>
  <g
     inkscape:label="Layer 1"
     inkscape:groupmode="layer"
     id="layer1">
    <path
       style="fill:#2b0000;fill-opacity:1;fill-rule:nonzero;stroke:#000000;stroke-width:1.5;stroke-miterlimit:4;stroke-opacity:1"
       d="m 443.20443,337.04792 c 0,8.15917 -16.95645,-3.66181 -32.57742,-3.66181 -15.62097,0 -21.71827,4.74991 -21.71827,-3.40926 0,-8.15917 -1.47884,-21.59201 14.14213,-21.59201 15.62097,0 40.15356,20.50391 40.15356,28.66308 z"
       id="path4765"
       inkscape:connector-curvature="0"
       sodipodi:nodetypes="sssss" />
    <path
       style="fill:#ffe6d5;fill-opacity:1;fill-rule:nonzero;stroke:#000000;stroke-width:2;stroke-miterlimit:4;stroke-opacity:1;stroke-dasharray:none"
       d="m 403.05086,359.90259 c -3.3941,17.83569 -55.16698,69.97238 -70.71068,69.70053 -20.09591,-0.35146 -90.24396,-55.62572 -84.34773,-71.21574 1.71435,-4.53285 -3.39316,-75.61683 65.65992,-87.37819 26.23298,1.10626 105.02806,26.56736 89.39849,88.8934 z"
       id="path3972"
       inkscape:connector-curvature="0"
       sodipodi:nodetypes="csscc" />
    <path
       style="fill:#000000;fill-opacity:1;fill-rule:nonzero;stroke:none"
       d="m 354.64285,388.03184 c 0,2.14504 -16.27573,15.49107 -27.32143,15.49107 -11.04569,0 -20.35714,-5.48889 -20.35714,-7.63393 0,-2.14503 8.24002,3.79465 19.28571,3.79465 11.0457,0 28.39286,-13.79682 28.39286,-11.65179 z"
       id="path4535"
       inkscape:connector-curvature="0"
       sodipodi:nodetypes="sssss" />
    <path
       style="fill:#ffffff;fill-opacity:1;fill-rule:nonzero;stroke:none"
       d="m 309.7307,339.60243 c 0.82421,23.56866 -8.92137,16.46695 -21.75988,17.07152 -20.84637,0.98166 -32.64156,1.30227 -20.79832,-19.53563 6.05146,-10.64738 7.30399,-7.711 20.44117,-8.85722 13.05472,-1.13902 21.83627,3.29303 22.11703,11.32133 z"
       id="path4538-1"
       inkscape:connector-curvature="0"
       sodipodi:nodetypes="sssss" />
    <path
       style="fill:#ffccaa;fill-opacity:1;fill-rule:nonzero;stroke:none"
       d="m 272.10701,361.20148 c -0.0445,1.67412 -8.34728,1.30278 -9.68485,1.33928 -3.0964,0.0845 -5.41349,-0.98214 -5.41349,-0.98214 -6.01849,-6.29188 1.87809,-3.26349 5.97903,-2.41071 3.81385,0.79308 9.16257,0.42722 9.11931,2.05357 z"
       id="path4559"
       inkscape:connector-curvature="0"
       sodipodi:nodetypes="sssss" />
    <path
       style="fill:#ffffff;fill-opacity:1;fill-rule:nonzero;stroke:none"
       d="m 337.26664,339.91944 c -0.82421,23.56866 8.92137,16.46695 21.75988,17.07152 20.84637,0.98166 32.64156,1.30227 20.79832,-19.53563 -6.05146,-10.64738 -7.30399,-7.711 -20.44117,-8.85722 -13.05472,-1.13902 -21.83627,3.29303 -22.11703,11.32133 z"
       id="path4538-1-4"
       inkscape:connector-curvature="0"
       sodipodi:nodetypes="sssss" />
    <path
       style="fill:#333333;fill-opacity:1;fill-rule:nonzero;stroke:none"
       d="m 309.35921,346.1393 c -0.0454,3.35102 -1.56684,9.20656 -10.85914,9.7227 -6.37262,0.35397 -27.60478,0.67813 -24.24366,-13.51078 1.07709,-4.54692 8.5385,-12.65644 15.15229,-12.75318 9.06831,-0.13264 20.18995,-1.1307 19.95051,16.54126 z"
       id="path4582"
       inkscape:connector-curvature="0"
       sodipodi:nodetypes="sssss" />
    <path
       style="fill:#333333;fill-opacity:1;fill-rule:nonzero;stroke:none"
       d="m 337.84506,346.11155 c 0.0454,3.35102 1.56684,9.20656 10.85914,9.7227 6.37262,0.35397 27.60478,0.67813 24.24366,-13.51078 -1.07709,-4.54692 -8.5385,-12.65644 -15.15229,-12.75318 -9.06831,-0.13264 -20.18995,-1.1307 -19.95051,16.54126 z"
       id="path4582-9"
       inkscape:connector-curvature="0"
       sodipodi:nodetypes="sssss" />
    <path
       style="fill:#000000;fill-opacity:1;fill-rule:nonzero;stroke:none"
       d="m 274.63629,344.45926 c 0.3247,4.46181 0.17955,6.52248 0.0486,6.11694 -1.29515,-4.01101 -0.62105,-2.05558 -1.37998,-6.78658 -0.70692,-4.40679 0.39575,-7.98712 2.27284,-8.08122 3.59313,-1.13443 -0.70232,4.49479 -0.94145,8.75086 z"
       id="path4603"
       inkscape:connector-curvature="0"
       sodipodi:nodetypes="cssccc" />
    <path
       style="fill:#000000;fill-opacity:1;fill-rule:nonzero;stroke:none"
       d="m 371.8394,344.62093 c -0.3247,4.46181 -0.17955,6.52248 -0.0486,6.11694 1.29515,-4.01101 0.62105,-2.05558 1.37998,-6.78658 0.70692,-4.40679 -0.39575,-7.98712 -2.27284,-8.08122 -3.59313,-1.13443 0.70232,4.49479 0.94145,8.75086 z"
       id="path4603-8"
       inkscape:connector-curvature="0"
       sodipodi:nodetypes="cssccc" />
    <path
       style="fill:#000000;fill-opacity:1;fill-rule:nonzero;stroke:none"
       d="m 306.06263,329.55224 c -7.22584,0.30152 -13.18746,0.59959 -21.2657,4.66797 -16.91919,8.52088 -10.55792,4.71864 -10.31594,1.15764 0.0997,-1.54327 6.39664,-4.33329 15.22565,-7.10935 6.08342,-1.91278 14.47841,0.25989 16.35599,1.28374 z"
       id="path4624"
       inkscape:connector-curvature="0"
       sodipodi:nodetypes="cscsc" />
    <path
       style="fill:#000000;fill-opacity:1;fill-rule:nonzero;stroke:none"
       d="m 340.66726,329.71967 c 7.22584,0.30152 13.18746,0.59959 21.2657,4.66797 16.91919,8.52088 10.55792,4.71864 10.31594,1.15764 -0.0997,-1.54327 -6.39664,-4.33329 -15.22565,-7.10935 -6.08342,-1.91278 -14.47841,0.25989 -16.35599,1.28374 z"
       id="path4624-2"
       inkscape:connector-curvature="0"
       sodipodi:nodetypes="cscsc" />
    <path
       style="fill:#000000;fill-opacity:1;fill-rule:nonzero;stroke:none"
       d="m 308.09654,332.62851 c 0.50508,3.09007 2.88127,14.08563 1.4521,11.17481 -1.82594,-3.71892 -3.27513,-12.41944 -10.66973,-13.76333 -4.33772,-4.42207 5.47633,-0.7223 9.21763,2.58852 z"
       id="path4648"
       inkscape:connector-curvature="0"
       sodipodi:nodetypes="cscc" />
    <path
       style="fill:#000000;fill-opacity:1;fill-rule:nonzero;stroke:none"
       d="m 339.01448,332.76993 c -0.50508,3.09007 -2.88127,14.08563 -1.4521,11.17481 1.82594,-3.71892 3.27513,-12.41944 10.66973,-13.76333 4.33772,-4.42207 -5.47633,-0.7223 -9.21763,2.58852 z"
       id="path4648-4"
       inkscape:connector-curvature="0"
       sodipodi:nodetypes="cscc" />
    <path
       style="fill:#333333;fill-opacity:1;fill-rule:nonzero;stroke:none"
       d="m 317.81853,364.76398 c 0,3.20788 7.80433,5.6821 6.06092,5.6821 -1.74341,0 -9.09137,-1.84288 -9.09137,-5.05076 0,-3.20788 4.21027,-5.66417 5.95368,-5.66417 1.74341,0 -2.92323,1.82495 -2.92323,5.03283 z"
       id="path4669-5"
       inkscape:connector-curvature="0"
       sodipodi:nodetypes="sssss" />
    <path
       style="fill:#000000;fill-opacity:1;fill-rule:nonzero;stroke:none"
       d="m 319.83954,364.44831 c 0,3.20788 7.80433,5.6821 6.06092,5.6821 -1.74341,0 -9.09137,-1.84288 -9.09137,-5.05076 0,-3.20788 6.08527,-7.44988 7.82868,-7.44988 1.74341,0 -4.79823,3.61066 -4.79823,6.81854 z"
       id="path4669"
       inkscape:connector-curvature="0"
       sodipodi:nodetypes="sssss" />
    <path
       style="fill:#2b1100;fill-opacity:1;fill-rule:nonzero;stroke:none"
       d="m 270.72087,315.07707 c 0,6.90391 -8.55578,16.79379 -13.13198,22.85471 -2.6053,3.45057 -2.02031,-4.83912 -2.27285,-16.03618 -0.15567,-6.90215 4.76772,-13.25825 9.09138,-13.25825 4.32366,0 6.31345,-0.46419 6.31345,6.43972 z"
       id="path4709"
       inkscape:connector-curvature="0"
       sodipodi:nodetypes="sssss" />
    <path
       style="fill:#2b1100;fill-opacity:1;fill-rule:nonzero;stroke:none"
       d="m 300.77292,320.75919 c 0,2.23156 -8.09662,6.60883 -17.29886,4.04061 -20.20552,-5.63909 -17.37958,-1.85178 -17.29886,-4.04061 0.0822,-2.23005 8.48508,-7.74123 17.29886,-4.04061 8.80894,3.69859 17.29886,1.80904 17.29886,4.04061 z"
       id="path4712"
       inkscape:connector-curvature="0"
       sodipodi:nodetypes="sssss" />
    <path
       style="fill:#000000;fill-opacity:1;fill-rule:nonzero;stroke:none"
       d="m 267.44586,324.6833 c -1.37437,2.47687 -11.50138,15.83775 -11.56414,15.08512 3.45442,-4.99946 9.11304,-12.40483 10.29093,-15.77557 7.09244,-12.28494 2.2585,-1.08523 1.27321,0.69045 z"
       id="path4718"
       inkscape:connector-curvature="0"
       sodipodi:nodetypes="sccs" />
    <path
       style="fill:#ff2a2a;fill-opacity:1;fill-rule:nonzero;stroke:#000000;stroke-width:2;stroke-miterlimit:4;stroke-opacity:1;stroke-dasharray:none"
       d="m 409.75105,300.61026 c 3.39613,10.99741 -2.36902,19.00145 -0.31182,23.96078 4.52826,10.91634 -32.6406,7.1762 -69.00873,2.72578 -107.67978,-13.17692 -86.68513,-0.72561 -84.22486,-31.31783 2.34457,-29.15343 71.76195,-57.3794 107.88607,-51.00974 36.12412,6.36966 37.13425,28.03491 45.65934,55.64101 z"
       id="path4701"
       inkscape:connector-curvature="0"
       sodipodi:nodetypes="ssssss" />
    <path
       style="fill:#000000;fill-opacity:1;fill-rule:nonzero;stroke:none"
       d="m 255.6633,330.10312 c 0,5.99734 1.35515,8.14436 1.13643,12.69004 -0.0469,0.97519 -2.74636,-6.6927 -2.74636,-12.69004 0,-5.99734 1.10713,-12.72161 2.08344,-12.72161 0.97631,0 -0.47351,6.72427 -0.47351,12.72161 z"
       id="path4715"
       inkscape:connector-curvature="0"
       sodipodi:nodetypes="sssss" />
    <path
       transform="translate(-0.25253817,-3.1567267)"
       style="fill:#ffffff;fill-opacity:1;fill-rule:nonzero;stroke:none"
       d="m 305.94996,340.96225 c 0,1.81314 -6.15501,-0.75762 -7.82868,-0.75762 -1.67368,0 -6.06092,-0.0809 -6.06092,-1.89403 0,-1.81315 3.73157,-3.71795 5.42957,-4.16688 4.97284,-1.31477 8.46003,5.00538 8.46003,6.81853 z"
       id="path4721"
       inkscape:connector-curvature="0"
       sodipodi:nodetypes="sssss" />
    <path
       style="fill:#ffffff;fill-opacity:1;fill-rule:nonzero;stroke:none"
       d="m 341.43156,338.2024 c 0,1.81314 6.15501,-0.75762 7.82868,-0.75762 1.67368,0 6.06092,-0.0809 6.06092,-1.89403 0,-1.81315 -3.73157,-3.71795 -5.42957,-4.16688 -4.97284,-1.31477 -8.46003,5.00538 -8.46003,6.81853 z"
       id="path4721-2"
       inkscape:connector-curvature="0"
       sodipodi:nodetypes="sssss" />
    <path
       style="fill:#000000;fill-opacity:1;fill-rule:nonzero;stroke:none"
       d="m 308.39284,351.20148 c -1.20505,0.5661 -2.38871,4.99999 -10.40177,4.99999 -3.51597,0 -8.41041,0.15008 -12.23227,-0.6889 -4.88833,-1.07309 -8.41944,-3.25321 -9.33023,-3.95395 -1.42701,-1.09792 6.31729,2.76785 14.33035,2.76785 8.01306,0 20.84821,-4.63496 17.63392,-3.12499 z"
       id="path4744"
       inkscape:connector-curvature="0"
       sodipodi:nodetypes="ssssss" />
    <path
       style="fill:#000000;fill-opacity:1;fill-rule:nonzero;stroke:none"
       d="m 339.75914,351.48772 c 1.20505,0.5661 2.38871,4.99999 10.40177,4.99999 3.51597,0 8.41041,0.15008 12.23227,-0.6889 4.88833,-1.07309 8.41944,-3.25321 9.33023,-3.95395 1.42701,-1.09792 -6.31729,2.76785 -14.33035,2.76785 -8.01306,0 -20.84821,-4.63496 -17.63392,-3.12499 z"
       id="path4744-9"
       inkscape:connector-curvature="0"
       sodipodi:nodetypes="ssssss" />
    <path
       sodipodi:type="arc"
       style="fill:#ff8080;fill-opacity:1;fill-rule:nonzero;stroke:#000000;stroke-width:1.5;stroke-miterlimit:4;stroke-opacity:1;stroke-dasharray:none"
       id="path4768"
       sodipodi:cx="351.28055"
       sodipodi:cy="242.47238"
       sodipodi:rx="13.131983"
       sodipodi:ry="11.111678"
       d="m 364.41253,242.47238 a 13.131983,11.111678 0 1 1 -26.26396,0 13.131983,11.111678 0 1 1 26.26396,0 z"
       transform="translate(15.657364,-3.2829958)" />
    <path
       style="fill:#aa0000;fill-opacity:1;fill-rule:nonzero;stroke:none"
       d="m 406.33387,324.421 c -0.12943,1.59871 -3.40194,7.44987 -36.36549,2.90419 -19.89582,-2.74365 -36.11295,-3.06802 -36.11295,-4.67196 0,-1.60394 32.17565,-1.68675 52.02285,1.38896 16.29603,2.52538 20.70813,-2.74036 20.45559,0.37881 z"
       id="path4775"
       inkscape:connector-curvature="0"
       sodipodi:nodetypes="sssss" />
    <path
       style="fill:#000000;fill-opacity:1;fill-rule:nonzero;stroke:none"
       d="m 401.16444,287.02136 c 0.94521,4.18433 -0.56064,21.99894 -2.58189,28.71454 -1.39693,4.6413 -1.17282,-10.67665 -1.58261,-14.78914 -2.05411,-20.61414 -6.76579,-30.35884 -16.16651,-40.07164 -1.75052,-1.80862 -7.46312,-13.39413 -3.58026,-9.52591 4.86198,4.84365 20.34484,19.88405 23.91127,35.67215 z"
       id="path4778"
       inkscape:connector-curvature="0"
       sodipodi:nodetypes="ssssss" />
    <path
       style="fill:#aa0000;fill-opacity:1;fill-rule:nonzero;stroke:none"
       d="m 324.00641,307.87976 c 0,1.11578 -16.91265,3.44973 -34.59772,1.01015 -20.06708,-2.76817 -32.49894,-1.1221 -32.32488,-2.0203 0.21228,-1.0954 14.47234,-2.02031 32.32488,-2.02031 17.85254,0 34.59772,1.91468 34.59772,3.03046 z"
       id="path4784"
       inkscape:connector-curvature="0"
       sodipodi:nodetypes="sssss" />
    <path
       style="fill:#000000;fill-opacity:1;fill-rule:nonzero;stroke:none"
       d="m 404.81862,321.13801 c -1.83195,-1.11473 -14.94432,-5.34116 -30.25001,-6.06413 -42.12317,-8.5196 -121.97033,-2.21454 -116.72718,-9.84577 3.11083,-0.91606 39.19742,6.45216 77.65547,1.89404 4.6066,-0.54598 14.23294,1.40134 26.5074,3.27187 2.90566,0.4428 12.39614,0.64291 14.62203,1.07801 13.56835,2.65225 15.10837,2.24627 22.06202,4.02566 6.2125,1.58974 8.2088,6.90509 6.13027,5.64032 z"
       id="path4781"
       inkscape:connector-curvature="0"
       sodipodi:nodetypes="sccsssss" />
  </g>
</svg>
